<svg width="947" height="415" xmlns="http://www.w3.org/2000/svg"><defs><linearGradient x1="0%" y1="31.331%" x2="50%" y2="87.5%" id="a"><stop stop-color="#FFFEFA" offset="0%"/><stop stop-color="#FFEBAE" offset="100%"/></linearGradient></defs><g fill="none" fill-rule="evenodd"><g fill-rule="nonzero"><path fill="url(#a)" d="M114 3l109.985 63.5v127L114 257 4.015 193.5v-127z" transform="translate(76 77)"/><path d="M186.755 77.67L78.5 140.17a5 5 0 0 0-2.5 4.33v125a5 5 0 0 0 2.5 4.33l108.255 62.5a5 5 0 0 0 5 0l108.255-62.5a5 5 0 0 0 2.5-4.33v-125a5 5 0 0 0-2.5-4.33l-108.255-62.5a5 5 0 0 0-5 0zm2.5 9.33l103.925 60v120l-103.925 60L85.33 267V147l103.925-60z" fill="#94161F"/></g><path d="M368.182 230.179c-.96 1.98-2.067 3.496-3.32 4.547-1.252 1.05-2.484 1.819-3.695 2.304-1.378.566-2.797.89-4.259.97-1.879 0-3.413-.283-4.603-.849-1.19-.566-2.13-1.314-2.819-2.243a8.423 8.423 0 0 1-1.44-3.153 15.807 15.807 0 0 1-.407-3.577v-31.771H341l2.693-6.063h3.946V168.88L359.1 165v25.344H371l-2.568 6.063H359.1v32.074c0 .97.23 1.738.69 2.304.458.566 1.043.859 1.753.879.71.02 1.503-.232 2.38-.758.877-.525 1.733-1.374 2.568-2.546l1.69 1.819zM418 231.747c0 2.929-.358 5.786-1.074 8.573a38.28 38.28 0 0 1-2.955 7.87 36.231 36.231 0 0 1-4.446 6.773c-1.71 2.054-3.57 3.824-5.58 5.308-2.01 1.485-4.128 2.644-6.356 3.478-2.228.834-4.476 1.251-6.744 1.251-1.711 0-3.322-.295-4.834-.885a19.321 19.321 0 0 1-4.297-2.349l6.684-8.664c.597.488 1.263.997 2 1.526a20.767 20.767 0 0 0 2.297 1.433c.796.428 1.621.773 2.477 1.038.855.264 1.7.396 2.536.396 1.512 0 2.795-.468 3.85-1.403 1.054-.936 1.92-2.136 2.596-3.6.676-1.464 1.213-3.122 1.611-4.973.398-1.85.687-3.69.866-5.521.179-1.83.288-3.57.328-5.217.04-1.647.06-3 .06-4.058v-24.588a172.487 172.487 0 0 1-1.254 5.155 78.078 78.078 0 0 1-1.94 6.346 77.157 77.157 0 0 1-2.655 6.59c-.995 2.176-2.119 4.138-3.372 5.887-1.254 1.75-2.646 3.163-4.178 4.24-1.532 1.079-3.193 1.618-4.983 1.618-1.83 0-3.213-.417-4.148-1.251-.935-.834-1.612-1.892-2.03-3.173-.417-1.281-.646-2.695-.686-4.24-.04-1.546-.06-3.03-.06-4.454v-26.359c0-.732-.198-1.454-.596-2.166-.398-.711-1.015-1.067-1.85-1.067-.995 0-1.9.376-2.716 1.128-.816.753-1.462 1.495-1.94 2.227l-1.611-1.83a15.992 15.992 0 0 1 1.82-2.96c.736-.955 1.572-1.8 2.507-2.531a11.977 11.977 0 0 1 3.044-1.74 9.355 9.355 0 0 1 3.431-.64c3.104 0 5.342.885 6.715 2.654 1.372 1.77 2.059 4.16 2.059 7.17v25.137c0 .244.01.56.03.946.02.387.089.753.208 1.098.12.346.299.651.537.916.24.264.557.396.955.396.756 0 1.532-.447 2.328-1.342a21.317 21.317 0 0 0 2.268-3.112 30.174 30.174 0 0 0 1.85-3.539c.517-1.18.895-2.054 1.134-2.623a47.99 47.99 0 0 0 1.91-5.736 90.036 90.036 0 0 0 1.462-6.376c.418-2.176.776-4.332 1.074-6.467.299-2.136.527-4.18.687-6.132L418 188v43.747zm37.546 6.247c-1.403 0-2.745-.193-4.027-.58-1.282-.385-2.484-1.025-3.606-1.919l4.688-6.825c.761 1.057 1.653 1.88 2.674 2.468 1.022.59 2.154.884 3.396.884 1.282 0 2.383-.335 3.305-1.006.921-.67 1.693-1.553 2.314-2.65.62-1.097 1.131-2.326 1.532-3.687.4-1.361.701-2.732.902-4.113.2-1.382.34-2.712.42-3.992.08-1.28.12-2.366.12-3.26 0-1.706-.23-3.555-.69-5.545a22.407 22.407 0 0 0-2.104-5.607c-.942-1.746-2.153-3.199-3.636-4.357-1.482-1.157-3.245-1.736-5.288-1.736-1.403 0-2.594.355-3.576 1.066-.982.711-1.803 1.645-2.464 2.803s-1.182 2.478-1.562 3.961a34.746 34.746 0 0 0-.842 4.449 46.98 46.98 0 0 0-.33 4.326c-.04 1.402-.06 2.61-.06 3.626v46.8l-10.938 3.9v-68.433c0-.812-.2-1.554-.6-2.224-.402-.67-1.023-1.005-1.864-1.005-1.002 0-1.913.375-2.734 1.127-.822.751-1.473 1.493-1.953 2.224L427 196.861c.48-1.016 1.092-2 1.833-2.956a14.258 14.258 0 0 1 2.524-2.528 12.086 12.086 0 0 1 3.065-1.737 9.488 9.488 0 0 1 3.455-.64c1.723 0 3.145.254 4.267.762 1.122.508 2.023 1.229 2.705 2.163.68.934 1.161 2.052 1.442 3.352.28 1.3.42 2.742.42 4.326a36.425 36.425 0 0 1 2.254-3.808 19.122 19.122 0 0 1 2.915-3.413 14.725 14.725 0 0 1 3.576-2.437c1.302-.63 2.734-.945 4.296-.945 2.765 0 5.219.62 7.362 1.859a17.362 17.362 0 0 1 5.409 4.875c1.462 2.01 2.574 4.275 3.335 6.794a26.403 26.403 0 0 1 1.142 7.678c0 3.21-.45 6.46-1.352 9.75-.902 3.29-2.244 6.277-4.027 8.958-1.782 2.681-4.016 4.865-6.7 6.55-2.685 1.687-5.81 2.53-9.375 2.53zM525 225.696a44.705 44.705 0 0 1-4.575 5.198 31.405 31.405 0 0 1-5.383 4.207 28.228 28.228 0 0 1-6.13 2.847 21.49 21.49 0 0 1-6.698 1.052c-2.95 0-5.661-.547-8.133-1.64-2.472-1.093-4.605-2.599-6.4-4.517-1.794-1.919-3.19-4.187-4.186-6.807-.997-2.62-1.495-5.435-1.495-8.447 0-2.475.339-4.91 1.017-7.302a28.699 28.699 0 0 1 2.87-6.745 32.397 32.397 0 0 1 4.396-5.848 28.652 28.652 0 0 1 5.592-4.61 28.021 28.021 0 0 1 6.459-3.001A22.975 22.975 0 0 1 509.33 189c1.675 0 3.26.206 4.755.619 1.495.412 2.82 1.062 3.977 1.95 1.156.886 2.073 2.02 2.75 3.403.678 1.382 1.017 3.021 1.017 4.92 0 1.567-.448 3.217-1.345 4.95-.897 1.732-2.074 3.465-3.529 5.198a53.31 53.31 0 0 1-4.934 5.105 77.013 77.013 0 0 1-5.592 4.64 69.527 69.527 0 0 1-5.472 3.745c-1.754 1.072-3.289 1.897-4.605 2.475 1.475 1.898 3.19 3.445 5.144 4.641 1.953 1.196 4.026 1.795 6.22 1.795 1.395 0 2.81-.279 4.245-.836a22.748 22.748 0 0 0 4.157-2.135 37.254 37.254 0 0 0 3.827-2.846c1.216-1.032 2.303-2.001 3.26-2.909l1.794 1.98zm-13-23.572c0-.95-.16-1.859-.478-2.726a6.65 6.65 0 0 0-1.37-2.26 6.923 6.923 0 0 0-2.133-1.55c-.828-.392-1.773-.588-2.834-.588-1.911 0-3.673.65-5.287 1.951-1.614 1.301-3.004 2.901-4.172 4.801a26.383 26.383 0 0 0-2.739 6.04c-.658 2.127-.987 3.996-.987 5.606 0 1.57.255 3.18.764 4.832a22.734 22.734 0 0 0 2.102 4.77c1.699-.909 3.546-2.168 5.542-3.779a47.598 47.598 0 0 0 5.573-5.296c1.72-1.92 3.153-3.913 4.3-5.978 1.146-2.065 1.719-4.006 1.719-5.823zM581 185l-3.685 10H536l3.805-10H581zm58 44.492a13.742 13.742 0 0 1-1.896 3 16.586 16.586 0 0 1-2.568 2.509 11.822 11.822 0 0 1-3.088 1.744 9.601 9.601 0 0 1-3.455.643c-3.22 0-5.555-.888-7.002-2.663s-2.17-4.193-2.17-7.253v-1.102a43.394 43.394 0 0 1-2.386 4.162 20.333 20.333 0 0 1-3.088 3.734 15.202 15.202 0 0 1-3.914 2.693c-1.447.694-3.067 1.041-4.861 1.041-2.731 0-5.127-.54-7.185-1.622a15.457 15.457 0 0 1-5.168-4.346c-1.386-1.816-2.435-3.928-3.149-6.335-.713-2.408-1.07-4.938-1.07-7.59 0-3.428.53-6.876 1.59-10.345 1.06-3.469 2.609-6.61 4.647-9.426a25.011 25.011 0 0 1 7.522-6.887c2.976-1.775 6.38-2.662 10.212-2.662 2.365 0 4.648.571 6.85 1.714v-37.584L630.132 149v78.778a4.4 4.4 0 0 0 .581 2.234c.387.673 1.03 1.01 1.926 1.01.938 0 1.814-.377 2.63-1.132.815-.755 1.467-1.52 1.957-2.296l1.773 1.898zm-21-18.316v-12.953a12.833 12.833 0 0 0-3.112-2.31c-1.148-.609-2.407-.913-3.776-.913-2.377 0-4.39.649-6.043 1.946-1.651 1.297-3 2.919-4.048 4.865a23.715 23.715 0 0 0-2.296 6.294c-.483 2.25-.725 4.348-.725 6.294 0 1.54.151 3.273.453 5.199.302 1.926.826 3.73 1.571 5.412.745 1.683 1.732 3.101 2.96 4.257 1.23 1.155 2.77 1.733 4.623 1.733 1.49 0 2.79-.334 3.898-1.003a9.364 9.364 0 0 0 2.81-2.615c.765-1.075 1.389-2.311 1.872-3.71a28.525 28.525 0 0 0 1.118-4.287c.262-1.46.443-2.909.544-4.348.1-1.439.151-2.726.151-3.861zm67 14.52a44.705 44.705 0 0 1-4.575 5.198 31.405 31.405 0 0 1-5.383 4.207 28.228 28.228 0 0 1-6.13 2.847 21.49 21.49 0 0 1-6.698 1.052c-2.95 0-5.661-.547-8.133-1.64-2.472-1.093-4.605-2.599-6.4-4.517-1.794-1.919-3.19-4.187-4.186-6.807-.997-2.62-1.495-5.435-1.495-8.447 0-2.475.339-4.91 1.017-7.302a28.699 28.699 0 0 1 2.87-6.745 32.397 32.397 0 0 1 4.396-5.848 28.652 28.652 0 0 1 5.592-4.61 28.021 28.021 0 0 1 6.459-3.001A22.975 22.975 0 0 1 669.33 189c1.675 0 3.26.206 4.755.619 1.495.412 2.82 1.062 3.977 1.95 1.156.886 2.073 2.02 2.75 3.403.678 1.382 1.017 3.021 1.017 4.92 0 1.567-.448 3.217-1.345 4.95-.897 1.732-2.074 3.465-3.529 5.198a53.31 53.31 0 0 1-4.934 5.105 77.013 77.013 0 0 1-5.592 4.64 69.527 69.527 0 0 1-5.472 3.745c-1.754 1.072-3.289 1.897-4.605 2.475 1.475 1.898 3.19 3.445 5.144 4.641 1.953 1.196 4.026 1.795 6.22 1.795 1.395 0 2.81-.279 4.245-.836a22.748 22.748 0 0 0 4.157-2.135 37.254 37.254 0 0 0 3.827-2.846c1.216-1.032 2.303-2.001 3.26-2.909l1.794 1.98zm-13-23.572c0-.95-.16-1.859-.478-2.726a6.65 6.65 0 0 0-1.37-2.26 6.923 6.923 0 0 0-2.133-1.55c-.828-.392-1.773-.588-2.834-.588-1.911 0-3.673.65-5.287 1.951-1.614 1.301-3.004 2.901-4.172 4.801a26.383 26.383 0 0 0-2.739 6.04c-.658 2.127-.987 3.996-.987 5.606 0 1.57.255 3.18.764 4.832a22.734 22.734 0 0 0 2.102 4.77c1.699-.909 3.546-2.168 5.542-3.779a47.598 47.598 0 0 0 5.573-5.296c1.72-1.92 3.153-3.913 4.3-5.978 1.146-2.065 1.719-4.006 1.719-5.823zm46.182 28.055c-.96 1.98-2.067 3.496-3.32 4.547-1.252 1.05-2.484 1.819-3.695 2.304-1.378.566-2.797.89-4.259.97-1.879 0-3.413-.283-4.603-.849-1.19-.566-2.13-1.314-2.819-2.243a8.423 8.423 0 0 1-1.44-3.153 15.807 15.807 0 0 1-.407-3.577v-31.771H691l2.693-6.063h3.946V168.88L709.1 165v25.344H721l-2.568 6.063H709.1v32.074c0 .97.23 1.738.69 2.304.458.566 1.043.859 1.753.879.71.02 1.503-.232 2.38-.758.877-.525 1.733-1.374 2.568-2.546l1.69 1.819zM765 225.696a44.705 44.705 0 0 1-4.575 5.198 31.405 31.405 0 0 1-5.383 4.207 28.228 28.228 0 0 1-6.13 2.847 21.49 21.49 0 0 1-6.698 1.052c-2.95 0-5.661-.547-8.133-1.64-2.472-1.093-4.605-2.599-6.4-4.517-1.794-1.919-3.19-4.187-4.186-6.807-.997-2.62-1.495-5.435-1.495-8.447 0-2.475.339-4.91 1.017-7.302a28.699 28.699 0 0 1 2.87-6.745 32.397 32.397 0 0 1 4.396-5.848 28.652 28.652 0 0 1 5.592-4.61 28.021 28.021 0 0 1 6.459-3.001A22.975 22.975 0 0 1 749.33 189c1.675 0 3.26.206 4.755.619 1.495.412 2.82 1.062 3.977 1.95 1.156.886 2.073 2.02 2.75 3.403.678 1.382 1.017 3.021 1.017 4.92 0 1.567-.448 3.217-1.345 4.95-.897 1.732-2.074 3.465-3.529 5.198a53.31 53.31 0 0 1-4.934 5.105 77.013 77.013 0 0 1-5.592 4.64 69.527 69.527 0 0 1-5.472 3.745c-1.754 1.072-3.289 1.897-4.605 2.475 1.475 1.898 3.19 3.445 5.144 4.641 1.953 1.196 4.026 1.795 6.22 1.795 1.395 0 2.81-.279 4.245-.836a22.748 22.748 0 0 0 4.157-2.135 37.254 37.254 0 0 0 3.827-2.846c1.216-1.032 2.303-2.001 3.26-2.909l1.794 1.98zm-13-23.572c0-.95-.16-1.859-.478-2.726a6.65 6.65 0 0 0-1.37-2.26 6.923 6.923 0 0 0-2.133-1.55c-.828-.392-1.773-.588-2.834-.588-1.911 0-3.673.65-5.287 1.951-1.614 1.301-3.004 2.901-4.172 4.801a26.383 26.383 0 0 0-2.739 6.04c-.658 2.127-.987 3.996-.987 5.606 0 1.57.255 3.18.764 4.832a22.734 22.734 0 0 0 2.102 4.77c1.699-.909 3.546-2.168 5.542-3.779a47.598 47.598 0 0 0 5.573-5.296c1.72-1.92 3.153-3.913 4.3-5.978 1.146-2.065 1.719-4.006 1.719-5.823zm63 22.1a63.724 63.724 0 0 1-4.575 5.456 35.524 35.524 0 0 1-5.383 4.707 29.034 29.034 0 0 1-6.13 3.335 18.043 18.043 0 0 1-6.698 1.278c-2.95 0-5.661-.54-8.133-1.62a18.44 18.44 0 0 1-6.4-4.614c-1.794-1.995-3.19-4.406-4.186-7.232-.997-2.827-1.495-5.985-1.495-9.477 0-3.657.708-7.128 2.123-10.411 1.415-3.284 3.31-6.162 5.682-8.635a26.696 26.696 0 0 1 8.283-5.86 23.69 23.69 0 0 1 9.927-2.151c1.356 0 2.721.135 4.097.405a18.28 18.28 0 0 1 3.947 1.247 13.55 13.55 0 0 1 3.469 2.245 12.597 12.597 0 0 1 2.661 3.335l-8.552 4.863a7.824 7.824 0 0 0-1.704-2.619 10.54 10.54 0 0 0-2.482-1.87 12.056 12.056 0 0 0-2.9-1.122 12.41 12.41 0 0 0-2.961-.374c-1.914 0-3.628.447-5.144 1.34a12.872 12.872 0 0 0-3.857 3.491c-1.057 1.434-1.864 3.055-2.422 4.863a18.602 18.602 0 0 0-.837 5.518c0 3.574.418 6.733 1.256 9.476.837 2.743 1.993 5.05 3.468 6.92 1.475 1.87 3.21 3.284 5.203 4.24 1.994.956 4.167 1.434 6.52 1.434 1.355 0 2.75-.354 4.185-1.06a23.102 23.102 0 0 0 4.157-2.65 46.431 46.431 0 0 0 3.827-3.398c1.216-1.205 2.303-2.286 3.26-3.242l1.794 2.182zm31.182 5.955c-.96 1.98-2.067 3.496-3.32 4.547-1.252 1.05-2.484 1.819-3.695 2.304-1.378.566-2.797.89-4.259.97-1.879 0-3.413-.283-4.603-.849-1.19-.566-2.13-1.314-2.819-2.243a8.423 8.423 0 0 1-1.44-3.153 15.807 15.807 0 0 1-.407-3.577v-31.771H819l2.693-6.063h3.946V168.88L837.1 165v25.344H849l-2.568 6.063H837.1v32.074c0 .97.23 1.738.69 2.304.458.566 1.043.859 1.753.879.71.02 1.503-.232 2.38-.758.877-.525 1.733-1.374 2.568-2.546l1.69 1.819z" fill="#94161F"/></g></svg>